<svg xmlns="http://www.w3.org/2000/svg" viewBox="0 0 263.69 71.89"><defs><style>.cls-1{fill:none;stroke:#232323;stroke-miterlimit:10;}.cls-2{fill:#232323;}</style></defs><title>Date_</title><g id="Calque_2" data-name="Calque 2"><g id="Calque_1-2" data-name="Calque 1"><path class="cls-1" d="M6.87,12.39a7,7,0,0,1-2.75,2,8.54,8.54,0,0,1-3.4.76V7.17a13.26,13.26,0,0,0,5.08-2A9.19,9.19,0,0,0,9.42.91h8V50.79H6.87Z"/><path class="cls-1" d="M28.77,50.12a10.12,10.12,0,0,1-4.33-3.34,8.72,8.72,0,0,1-1.62-5.33V36.11h9.57v1A13.35,13.35,0,0,0,32.85,41a1.94,1.94,0,0,0,2,1.45,2.69,2.69,0,0,0,2.3-.9,4.54,4.54,0,0,0,.66-2.69v-10a5.21,5.21,0,0,1-2.14,2.15,6.93,6.93,0,0,1-3.43.81A10.51,10.51,0,0,1,26,30.25a8.41,8.41,0,0,1-3.1-4.81A33,33,0,0,1,22,17q0-8,3-12.24T35,.5a15.89,15.89,0,0,1,8.06,1.74,9.44,9.44,0,0,1,4.18,5.22,28,28,0,0,1,1.22,9.05V30a62.2,62.2,0,0,1-.93,12.16,11.29,11.29,0,0,1-3.89,6.78q-3,2.35-8.93,2.35A15.23,15.23,0,0,1,28.77,50.12Zm9.07-30.6v-6.2q0-3.66-2.49-3.66a1.88,1.88,0,0,0-2,1.25,13.36,13.36,0,0,0-.44,4V19q0,4.07,2.32,4.06Q37.84,23.06,37.84,19.52Z"/><path class="cls-1" d="M59.33,50.12A10,10,0,0,1,55,46.78a8.72,8.72,0,0,1-1.62-5.33V36.11H63v1A13.35,13.35,0,0,0,63.42,41a1.94,1.94,0,0,0,2,1.45,2.67,2.67,0,0,0,2.29-.9,4.54,4.54,0,0,0,.67-2.69v-10a5.24,5.24,0,0,1-2.15,2.15,6.92,6.92,0,0,1-3.42.81,10.47,10.47,0,0,1-6.29-1.63,8.43,8.43,0,0,1-3.11-4.81A33,33,0,0,1,52.57,17q0-8,3-12.24T65.57.5a15.89,15.89,0,0,1,8.06,1.74A9.43,9.43,0,0,1,77.8,7.46,27.73,27.73,0,0,1,79,16.51V30a62.2,62.2,0,0,1-.93,12.16,11.27,11.27,0,0,1-3.88,6.78q-3,2.35-8.93,2.35A15.31,15.31,0,0,1,59.33,50.12Zm9.08-30.6v-6.2q0-3.66-2.5-3.66a1.88,1.88,0,0,0-2,1.25,13.43,13.43,0,0,0-.43,4V19q0,4.07,2.32,4.06Q68.41,23.06,68.41,19.52Z"/><path class="cls-1" d="M86.27,47.68q-3.42-3.57-3.42-10.18V15q0-7.08,3.3-10.79C88.36,1.74,91.64.5,96,.5s7.71,1.24,9.91,3.71,3.31,6.07,3.31,10.79V37.5q0,6.68-3.42,10.21T96,51.25Q89.69,51.25,86.27,47.68Zm11.54-6.61a4.1,4.1,0,0,0,.7-2.41V14.07A8.73,8.73,0,0,0,98,10.79a2,2,0,0,0-2-1.13,1.91,1.91,0,0,0-2,1.13,9,9,0,0,0-.46,3.28V38.66a4.23,4.23,0,0,0,.67,2.41,2,2,0,0,0,1.77,1A2.09,2.09,0,0,0,97.81,41.07Z"/><path class="cls-1" d="M113.24,50.79V42.32h10.15v8.47Z"/><path class="cls-1" d="M127.86,50.79V42.32H138v8.47Z"/><path class="cls-1" d="M142.47,50.79V42.32h10.15v8.47Z"/><path class="cls-2" d="M157.26,48.41a18.19,18.19,0,0,1,1.07-6.32A24.54,24.54,0,0,1,161,36.87q1.58-2.32,4.12-5.46t4.15-5.51a23.76,23.76,0,0,0,2.61-5.19,18.44,18.44,0,0,0,1.07-6.35,7,7,0,0,0-.58-3.16,2.14,2.14,0,0,0-2.09-1.13q-2.49,0-2.49,4.47v6.09h-10.5l-.12-3.08a31.6,31.6,0,0,1,1.16-9.34,10.09,10.09,0,0,1,4.06-5.56q2.91-1.92,8-1.92,6.25,0,9.68,3.51t3.43,10a23.21,23.21,0,0,1-1.13,7.45,25.25,25.25,0,0,1-2.79,5.83c-1.1,1.66-2.56,3.62-4.38,5.86-1.31,1.58-2.41,3-3.28,4.23a35.36,35.36,0,0,0-2.34,3.83h13.57v9.4H157.26Z"/><path class="cls-2" d="M190.09,47.68q-3.42-3.57-3.42-10.18V15q0-7.08,3.3-10.79T199.83.5q6.61,0,9.92,3.71T213.06,15V37.5q0,6.68-3.43,10.21t-9.8,3.54Q193.52,51.25,190.09,47.68Zm11.54-6.61a4.17,4.17,0,0,0,.7-2.41V14.07a8.51,8.51,0,0,0-.5-3.28,2,2,0,0,0-2-1.13,1.91,1.91,0,0,0-2,1.13,9,9,0,0,0-.47,3.28V38.66a4.31,4.31,0,0,0,.67,2.41,2,2,0,0,0,1.77,1A2.09,2.09,0,0,0,201.63,41.07Z"/><path class="cls-2" d="M222.33,12.39a6.89,6.89,0,0,1-2.75,2,8.53,8.53,0,0,1-3.39.76V7.17a13.21,13.21,0,0,0,5.07-2A9.27,9.27,0,0,0,224.89.91h8V50.79H222.33Z"/><path class="cls-2" d="M240.84,48.55q-3.54-2.92-3.54-8.67V32.52h10.38v4.23a12.14,12.14,0,0,0,.52,4,2.08,2.08,0,0,0,2.15,1.45,2.17,2.17,0,0,0,2.06-1,6.19,6.19,0,0,0,.55-2.9V28.51a12.1,12.1,0,0,0-.49-3.79,2,2,0,0,0-2.06-1.43c-1.9,0-2.85,1.38-2.85,4.12h-9.1V.91h23.72v9.33H247.91v7a5.71,5.71,0,0,1,2-1.62,6.34,6.34,0,0,1,2.9-.64q6.27,0,8.56,4.41t2.29,12.47a49.57,49.57,0,0,1-1,10.82,11.15,11.15,0,0,1-3.86,6.46q-2.9,2.33-8.52,2.32Q244.37,51.48,240.84,48.55Z"/><rect class="cls-2" y="65.39" width="50" height="6.5"/></g></g></svg>