<svg xmlns="http://www.w3.org/2000/svg" viewBox="0 0 213.65 34.01"><defs><style>.cls-1{fill:none;stroke:#232323;stroke-miterlimit:10;}</style></defs><title>reste</title><g id="Calque_2" data-name="Calque 2"><g id="Calque_1-2" data-name="Calque 1"><path class="cls-1" d="M8.92,30.33a14.21,14.21,0,0,1-1.42.23,6.69,6.69,0,0,1-5.22-2A8.3,8.3,0,0,1,.5,22.84V9.15A7.76,7.76,0,0,1,2.3,3.59a6.81,6.81,0,0,1,5.2-1.9,6.8,6.8,0,0,1,5.19,1.9,7.76,7.76,0,0,1,1.8,5.56V22.84a8.85,8.85,0,0,1-1.58,5.54l2.44,1.56L13.44,33.3Zm-.37-5.77a7.28,7.28,0,0,0,.23-2V9.24A4.23,4.23,0,0,0,8.5,7.53a1,1,0,0,0-1-.63q-1.35,0-1.35,2.31v13.4a6.33,6.33,0,0,0,.26,2,1.08,1.08,0,0,0,1.13.78A1,1,0,0,0,8.55,24.56Z"/><path class="cls-1" d="M19.19,29a9.29,9.29,0,0,1-1-4.82v-18H24V24.21a2.43,2.43,0,0,0,.31,1.42,1.15,1.15,0,0,0,1,.41,1,1,0,0,0,1.12-.74,7.33,7.33,0,0,0,.24-2.13V23l0-16.83h5.74V30.3H26.64V27.72a5.29,5.29,0,0,1-1.39,2.18,3.59,3.59,0,0,1-2.34.66C21.1,30.56,19.87,30,19.19,29Z"/><path class="cls-1" d="M37.29,28.52c-1.07-1.37-1.61-3.4-1.61-6.11v-9.7a6.51,6.51,0,0,1,1.91-5.08,7.63,7.63,0,0,1,5.35-1.75q7,0,7,6.83v1.75c0,1.76,0,3.19-.07,4.29H41.45v4.69a5.69,5.69,0,0,0,.27,2,1.27,1.27,0,0,0,2.06.31,1.85,1.85,0,0,0,.33-.91c0-.34,0-.84,0-1.5V21H49.9v1.39c0,2.81-.54,4.89-1.63,6.22s-3,2-5.63,2Q38.91,30.56,37.29,28.52Zm6.87-12.64v-3.1q0-2.61-1.29-2.61c-1,0-1.45.87-1.45,2.61v3.1Z"/><path class="cls-1" d="M62,6.14h5.78V8.82a4,4,0,0,1,1.5-2.2,4.37,4.37,0,0,1,2.65-.77v4.81a11.9,11.9,0,0,0-2.69.35c-1,.23-1.46.5-1.46.81V30.3H62Z"/><path class="cls-1" d="M75.94,28.52c-1.08-1.37-1.62-3.4-1.62-6.11v-9.7a6.55,6.55,0,0,1,1.91-5.08,7.63,7.63,0,0,1,5.35-1.75q7,0,7,6.83v1.75q0,2.64-.06,4.29H80.09v4.69a5.69,5.69,0,0,0,.27,2,1.27,1.27,0,0,0,2.06.31,1.76,1.76,0,0,0,.33-.91c0-.34,0-.84,0-1.5V21h5.74v1.39c0,2.81-.54,4.89-1.63,6.22s-3,2-5.63,2C78.8,30.56,77,29.88,75.94,28.52ZM82.8,15.88v-3.1q0-2.61-1.29-2.61c-1,0-1.45.87-1.45,2.61v3.1Z"/><path class="cls-1" d="M91.25,23.3l0-1.91h5.77l0,2.84a2.17,2.17,0,0,0,.33,1.3,1.26,1.26,0,0,0,1.09.45c.77,0,1.15-.63,1.15-1.89a3.78,3.78,0,0,0-.54-2.17,7.82,7.82,0,0,0-1.74-1.69l-3.06-2.37A8.11,8.11,0,0,1,92,15.33a8,8,0,0,1-.69-3.68,5.11,5.11,0,0,1,1-3.15,6,6,0,0,1,2.59-2,9.46,9.46,0,0,1,3.6-.66q7,0,7,7v.46h-6v-.93a3.47,3.47,0,0,0-.28-1.47,1,1,0,0,0-.94-.61,1.18,1.18,0,0,0-.91.35,1.38,1.38,0,0,0-.31.94,2.38,2.38,0,0,0,1,2.05l3.57,2.6a11.5,11.5,0,0,1,2.94,3.09,7.93,7.93,0,0,1,1,4.21,6.79,6.79,0,0,1-1.92,5.18,7.43,7.43,0,0,1-5.34,1.81Q91.24,30.56,91.25,23.3Z"/><path class="cls-1" d="M110.45,29.61a4.56,4.56,0,0,1-.86-3.07V11.46H108V7.07h1.61V2h5.62V7.07h1.65v4.39h-1.65V25a3.42,3.42,0,0,0,.09.92.49.49,0,0,0,.53.3q.33,0,.63,0l.4,0v4a12.25,12.25,0,0,1-1.44.28,11.67,11.67,0,0,1-1.83.15A4.16,4.16,0,0,1,110.45,29.61Z"/><path class="cls-1" d="M121.24,28.52c-1.07-1.37-1.61-3.4-1.61-6.11v-9.7a6.51,6.51,0,0,1,1.91-5.08,7.63,7.63,0,0,1,5.35-1.75q7,0,7,6.83v1.75c0,1.76,0,3.19-.07,4.29H125.4v4.69a5.69,5.69,0,0,0,.27,2,1.27,1.27,0,0,0,2.06.31,1.76,1.76,0,0,0,.33-.91c0-.34.05-.84.05-1.5V21h5.74v1.39c0,2.81-.54,4.89-1.63,6.22s-3,2-5.63,2Q122.85,30.56,121.24,28.52Zm6.87-12.64v-3.1q0-2.61-1.29-2.61c-1,0-1.45.87-1.45,2.61v3.1Z"/><path class="cls-1" d="M136.88,22.08V18.35h8.32v3.73Z"/><path class="cls-1" d="M150.35,29.61a4.56,4.56,0,0,1-.86-3.07V11.46h-1.62V7.07h1.62V2h5.61V7.07h1.65v4.39H155.1V25a3,3,0,0,0,.1.92c.07.2.24.3.53.3a6,6,0,0,0,.62,0l.4,0v4a12.44,12.44,0,0,1-1.43.28,11.7,11.7,0,0,1-1.84.15A4.14,4.14,0,0,1,150.35,29.61Z"/><path class="cls-1" d="M159.52,22.08V18.35h8.32v3.73Z"/><path class="cls-1" d="M171.11,4.53V.5h5.77v4Zm0,25.77V6.14h5.77V30.3Z"/><path class="cls-1" d="M180.31,30.3V1.79h5.88V30.3Z"/><path class="cls-1" d="M199.42,16.27a17.55,17.55,0,0,0,4.54-.44,3.64,3.64,0,0,0,2.32-1.9A10,10,0,0,0,207,9.44a4.92,4.92,0,0,0-.3-1.91,1.15,1.15,0,0,0-1.18-.69,1.18,1.18,0,0,0-1.23.79A6.63,6.63,0,0,0,204,9.81v2.37h-5.91V8.09a5.79,5.79,0,0,1,2-4.79,8.47,8.47,0,0,1,5.42-1.61q4.13,0,5.85,2.19c1.16,1.47,1.74,3.68,1.74,6.65a10.93,10.93,0,0,1-2.13,7,7.49,7.49,0,0,1-6.22,2.67V23h-5.38Zm-.17,14V25.48H205V30.3Z"/></g></g></svg>