<svg xmlns="http://www.w3.org/2000/svg" viewBox="0 0 218.77 89.06"><defs><style>.cls-1{fill:#232323;}.cls-2{fill:none;stroke:#232323;stroke-miterlimit:10;}</style></defs><title>surface_disparu</title><g id="Calque_2" data-name="Calque 2"><g id="Calque_2-2" data-name="Calque 2"><path class="cls-1" d="M2.14,33.82A5.93,5.93,0,0,1,.42,30.58,26.21,26.21,0,0,1,0,25.4L.08,12.2A7.94,7.94,0,0,1,1.66,7.1a5.37,5.37,0,0,1,4.46-2A5,5,0,0,1,10.36,7V.16h7V34.72h-7V31.6a5.73,5.73,0,0,1-1.62,2.58A4.12,4.12,0,0,1,6,35,5.47,5.47,0,0,1,2.14,33.82ZM10,28.54a9.55,9.55,0,0,0,.32-2.74V13.56A5.74,5.74,0,0,0,10,11.4a1.29,1.29,0,0,0-1.28-.88,1.34,1.34,0,0,0-1.38.82A5.88,5.88,0,0,0,7,13.56V25.88c0,2.45.56,3.68,1.68,3.68A1.31,1.31,0,0,0,10,28.54Z"/><path class="cls-1" d="M22.8,32.56q-2-2.48-2-7.4V13.4a7.91,7.91,0,0,1,2.32-6.16,9.28,9.28,0,0,1,6.48-2.12q8.45,0,8.44,8.28v2.12c0,2.13,0,3.87-.08,5.2H27.84V26.4a7.14,7.14,0,0,0,.32,2.38,1.54,1.54,0,0,0,2.5.38,2.22,2.22,0,0,0,.4-1.1c0-.41.06-1,.06-1.82V23.4h7v1.68c0,3.41-.66,5.93-2,7.54S32.51,35,29.28,35Q24.77,35,22.8,32.56Zm8.32-15.32V13.48c0-2.11-.52-3.16-1.56-3.16s-1.76,1-1.76,3.16v3.76Z"/><path class="cls-1" d="M51.8,34.72V.16h7.12V34.72Z"/><path class="cls-1" d="M63.3,32.78A13.47,13.47,0,0,1,62,26.32a12.36,12.36,0,0,1,.9-5.28,5.83,5.83,0,0,1,2.5-2.7,30,30,0,0,1,4.88-1.9l1.92-.64v-3A3,3,0,0,0,71.78,11a1.37,1.37,0,0,0-1.1-.62,1.22,1.22,0,0,0-1,.52,2.16,2.16,0,0,0-.42,1.4v1.76h-6.8v-1q0-4.32,2-6.16C65.84,5.73,68,5.12,71.08,5.12A8.93,8.93,0,0,1,77,7a6.62,6.62,0,0,1,2.28,5.38V34.72h-7V31.24A5.77,5.77,0,0,1,70.66,34,3.94,3.94,0,0,1,68,35Q64.56,35,63.3,32.78Zm8.56-3.84a3.59,3.59,0,0,0,.34-1.62V19.16a5.34,5.34,0,0,0-2.3,1.52,3.94,3.94,0,0,0-.74,2.56V27c0,1.73.52,2.6,1.56,2.6A1.19,1.19,0,0,0,71.86,28.94Z"/><path class="cls-1" d="M92.52,26.24l0-2.32h7l0,3.44a2.61,2.61,0,0,0,.4,1.58,1.52,1.52,0,0,0,1.32.54c.93,0,1.4-.76,1.4-2.28a4.6,4.6,0,0,0-.66-2.64,9.32,9.32,0,0,0-2.1-2l-3.72-2.88a9.89,9.89,0,0,1-2.76-3.06,9.64,9.64,0,0,1-.84-4.46A6.18,6.18,0,0,1,93.82,8.3,7.18,7.18,0,0,1,97,5.92a11.48,11.48,0,0,1,4.36-.8q8.52,0,8.52,8.48v.56H102.6V13a4.35,4.35,0,0,0-.34-1.78,1.18,1.18,0,0,0-1.14-.74,1.4,1.4,0,0,0-1.1.42,1.6,1.6,0,0,0-.38,1.14,2.86,2.86,0,0,0,1.24,2.48l4.32,3.16a13.72,13.72,0,0,1,3.56,3.74,9.68,9.68,0,0,1,1.24,5.1,8.27,8.27,0,0,1-2.32,6.28A9,9,0,0,1,101.2,35Q92.51,35,92.52,26.24Z"/><path class="cls-1" d="M114.22,33.08A11.15,11.15,0,0,1,113,27.24V5.44h7v21.9a2.88,2.88,0,0,0,.38,1.72,1.38,1.38,0,0,0,1.18.5,1.26,1.26,0,0,0,1.36-.9,9.4,9.4,0,0,0,.28-2.58v-.24l0-20.4h7V34.72h-7V31.6a6.4,6.4,0,0,1-1.68,2.64,4.37,4.37,0,0,1-2.84.8Q115.44,35,114.22,33.08Z"/><path class="cls-1" d="M134,5.44h7V8.68A4.87,4.87,0,0,1,142.78,6,5.31,5.31,0,0,1,146,5.08v5.84a14.22,14.22,0,0,0-3.26.42c-1.19.28-1.78.61-1.78,1v22.4h-7Z"/><path class="cls-1" d="M149.28,12H148l0-5.32h1.2v-2Q149.28,0,154,0a9.71,9.71,0,0,1,3.6.56V4.88a2.38,2.38,0,0,0-.64-.12.67.67,0,0,0-.72.4,3.36,3.36,0,0,0-.16,1.2v.36h1.52v5.4h-1.36v22.6h-7Z"/><path class="cls-1" d="M161.42,32.78a13.47,13.47,0,0,1-1.26-6.46,12.36,12.36,0,0,1,.9-5.28,5.83,5.83,0,0,1,2.5-2.7,30,30,0,0,1,4.88-1.9l1.92-.64v-3A3,3,0,0,0,169.9,11a1.37,1.37,0,0,0-1.1-.62,1.22,1.22,0,0,0-1,.52,2.16,2.16,0,0,0-.42,1.4v1.76h-6.8v-1q0-4.32,2-6.16c1.34-1.23,3.54-1.84,6.58-1.84A8.93,8.93,0,0,1,175.12,7a6.62,6.62,0,0,1,2.28,5.38V34.72h-7V31.24a5.77,5.77,0,0,1-1.66,2.8,3.94,3.94,0,0,1-2.7,1Q162.68,35,161.42,32.78ZM170,28.94a3.59,3.59,0,0,0,.34-1.62V19.16a5.34,5.34,0,0,0-2.3,1.52,3.94,3.94,0,0,0-.74,2.56V27c0,1.73.52,2.6,1.56,2.6A1.19,1.19,0,0,0,170,28.94Z"/><path class="cls-1" d="M182.88,32.6c-1.42-1.63-2.12-4.12-2.12-7.48v-9a19.29,19.29,0,0,1,.82-6.18,6.48,6.48,0,0,1,2.76-3.58,10.19,10.19,0,0,1,5.38-1.2,9.27,9.27,0,0,1,6.12,2,6.74,6.74,0,0,1,2.36,5.48V17h-7.12V12.92a4,4,0,0,0-.32-1.78,1.28,1.28,0,0,0-1.24-.62c-1.15,0-1.72.81-1.72,2.44v14.2a3.25,3.25,0,0,0,.42,1.7,1.37,1.37,0,0,0,1.26.7,1.39,1.39,0,0,0,1.26-.68,3.13,3.13,0,0,0,.38-1.76l0-4.92h7.12v5.12A7.15,7.15,0,0,1,195.86,33,8.85,8.85,0,0,1,189.8,35Q185,35,182.88,32.6Z"/><path class="cls-1" d="M203.28,32.56q-2-2.48-2-7.4V13.4a7.91,7.91,0,0,1,2.32-6.16,9.25,9.25,0,0,1,6.48-2.12q8.43,0,8.44,8.28v2.12c0,2.13,0,3.87-.08,5.2H208.32V26.4a6.89,6.89,0,0,0,.32,2.38,1.54,1.54,0,0,0,2.5.38,2.32,2.32,0,0,0,.4-1.1c0-.41.06-1,.06-1.82V23.4h7v1.68c0,3.41-.66,5.93-2,7.54S213,35,209.76,35Q205.23,35,203.28,32.56Zm8.32-15.32V13.48c0-2.11-.52-3.16-1.56-3.16s-1.76,1-1.76,3.16v3.76Z"/><path class="cls-2" d="M64,80.78a13.47,13.47,0,0,1-1.26-6.46,12.36,12.36,0,0,1,.9-5.28,5.83,5.83,0,0,1,2.5-2.7A30,30,0,0,1,71,64.44L73,63.8v-3A3,3,0,0,0,72.5,59a1.37,1.37,0,0,0-1.1-.62,1.22,1.22,0,0,0-1,.52,2.16,2.16,0,0,0-.42,1.4v1.76H63.2v-1q0-4.32,2-6.16c1.34-1.23,3.54-1.84,6.58-1.84A8.93,8.93,0,0,1,77.72,55,6.62,6.62,0,0,1,80,60.4V82.72H73V79.24A5.77,5.77,0,0,1,71.38,82a3.94,3.94,0,0,1-2.7,1Q65.27,83,64,80.78Zm8.56-3.84a3.59,3.59,0,0,0,.34-1.62V67.16a5.34,5.34,0,0,0-2.3,1.52,3.94,3.94,0,0,0-.74,2.56V75c0,1.73.52,2.6,1.56,2.6A1.19,1.19,0,0,0,72.58,76.94Z"/><path class="cls-2" d="M95.78,81.82a5.93,5.93,0,0,1-1.72-3.24,26.21,26.21,0,0,1-.42-5.18l.08-13.2a7.89,7.89,0,0,1,1.58-5.1,5.37,5.37,0,0,1,4.46-2A5,5,0,0,1,104,55V48.16h7V82.72h-7V79.6a5.73,5.73,0,0,1-1.62,2.58,4.14,4.14,0,0,1-2.74.86A5.45,5.45,0,0,1,95.78,81.82Zm7.9-5.28A9.55,9.55,0,0,0,104,73.8V61.56a5.74,5.74,0,0,0-.36-2.16,1.29,1.29,0,0,0-1.28-.88,1.33,1.33,0,0,0-1.38.82,5.88,5.88,0,0,0-.34,2.22V73.88c0,2.45.56,3.68,1.68,3.68A1.32,1.32,0,0,0,103.68,76.54Z"/><path class="cls-2" d="M114.68,51.48V46.6h7v4.88Zm0,31.24V53.44h7V82.72Z"/><path class="cls-2" d="M124.72,74.24l0-2.32h7l0,3.44a2.61,2.61,0,0,0,.4,1.58,1.52,1.52,0,0,0,1.32.54c.93,0,1.4-.76,1.4-2.28a4.6,4.6,0,0,0-.66-2.64,9.32,9.32,0,0,0-2.1-2l-3.72-2.88a9.89,9.89,0,0,1-2.76-3.06,9.64,9.64,0,0,1-.84-4.46A6.18,6.18,0,0,1,126,56.3a7.18,7.18,0,0,1,3.14-2.38,11.48,11.48,0,0,1,4.36-.8q8.52,0,8.52,8.48v.56H134.8V61a4.35,4.35,0,0,0-.34-1.78,1.18,1.18,0,0,0-1.14-.74,1.4,1.4,0,0,0-1.1.42,1.6,1.6,0,0,0-.38,1.14,2.86,2.86,0,0,0,1.24,2.48l4.32,3.16A13.72,13.72,0,0,1,141,69.46a9.68,9.68,0,0,1,1.24,5.1,8.27,8.27,0,0,1-2.32,6.28A9,9,0,0,1,133.4,83Q124.72,83,124.72,74.24Z"/><path class="cls-2" d="M145.28,53.44h7.12V55a5.1,5.1,0,0,1,4.2-1.88q3.39,0,4.74,2.28a12.56,12.56,0,0,1,1.34,6.32V72.56a32.84,32.84,0,0,1-.4,5.62,6.48,6.48,0,0,1-1.76,3.52A5.67,5.67,0,0,1,156.4,83a5.14,5.14,0,0,1-4-1.48v7h-7.12Zm10,23.28a9.19,9.19,0,0,0,.28-2.56V61.72a7.59,7.59,0,0,0-.28-2.32,1.22,1.22,0,0,0-1.28-.8c-1.1,0-1.64,1-1.64,3V74.48a6.13,6.13,0,0,0,.34,2.3,1.3,1.3,0,0,0,1.34.82A1.18,1.18,0,0,0,155.32,76.72Z"/><path class="cls-2" d="M166.86,80.78a13.47,13.47,0,0,1-1.26-6.46,12.36,12.36,0,0,1,.9-5.28,5.83,5.83,0,0,1,2.5-2.7,30,30,0,0,1,4.88-1.9l1.92-.64v-3a3,3,0,0,0-.46-1.78,1.37,1.37,0,0,0-1.1-.62,1.22,1.22,0,0,0-1,.52,2.16,2.16,0,0,0-.42,1.4v1.76H166v-1q0-4.32,2-6.16c1.34-1.23,3.54-1.84,6.58-1.84a8.93,8.93,0,0,1,5.92,1.9,6.62,6.62,0,0,1,2.28,5.38V82.72h-7V79.24a5.77,5.77,0,0,1-1.66,2.8,3.94,3.94,0,0,1-2.7,1Q168.12,83,166.86,80.78Zm8.56-3.84a3.59,3.59,0,0,0,.34-1.62V67.16a5.34,5.34,0,0,0-2.3,1.52,3.94,3.94,0,0,0-.74,2.56V75c0,1.73.52,2.6,1.56,2.6A1.19,1.19,0,0,0,175.42,76.94Z"/><path class="cls-2" d="M186.44,53.44h7v3.24A4.87,4.87,0,0,1,195.26,54a5.31,5.31,0,0,1,3.22-.94v5.84a14.22,14.22,0,0,0-3.26.42c-1.19.28-1.78.61-1.78,1v22.4h-7Z"/><path class="cls-2" d="M202.25,81.08A11.25,11.25,0,0,1,201,75.24V53.44h7v21.9a2.87,2.87,0,0,0,.39,1.72,1.38,1.38,0,0,0,1.17.5,1.26,1.26,0,0,0,1.36-.9,9,9,0,0,0,.28-2.58v-.24l0-20.4h7V82.72h-7V79.6a6.4,6.4,0,0,1-1.68,2.64,4.33,4.33,0,0,1-2.84.8Q203.48,83,202.25,81.08Z"/></g></g></svg>